<svg width="218" height="24" viewBox="0 0 218 24" fill="none" xmlns="http://www.w3.org/2000/svg">
<path fill-rule="evenodd" clip-rule="evenodd" d="M69.832 21.5109C69.832 21.9788 69.5963 22.2127 69.1249 22.2127H60.8201C60.6195 22.2127 60.4565 22.1542 60.3311 22.0373C60.2057 21.9203 60.1431 21.755 60.1431 21.5414C60.1431 21.3583 60.1857 21.2108 60.2709 21.0989C60.3562 20.987 60.4891 20.8955 60.6696 20.8243L61.3166 20.6259C61.477 20.5751 61.6024 20.4784 61.6927 20.336C61.783 20.1936 61.8281 19.9902 61.8281 19.7257V10.9069C61.8281 10.7645 61.793 10.645 61.7228 10.5484C61.6526 10.4517 61.5222 10.3627 61.3316 10.2814L60.459 9.99148C60.2283 9.87959 60.0628 9.76008 59.9625 9.63293C59.8622 9.50578 59.8121 9.35067 59.8121 9.16758C59.8121 8.98449 59.8748 8.83446 60.0001 8.71748L60.0494 8.67636C60.1695 8.5868 60.3261 8.54202 60.5192 8.54202H61.8394L61.829 8.45286C61.8008 8.27454 61.7303 8.10337 61.6175 7.93935C61.467 7.72066 61.2965 7.474 61.1059 7.19936C60.9154 6.92473 60.7449 6.59669 60.5944 6.21526C60.444 5.83382 60.3687 5.36338 60.3687 4.80394C60.3687 3.47146 60.8201 2.40598 61.7228 1.6075C62.6255 0.809027 63.9093 0.40979 65.5743 0.40979C66.6475 0.40979 67.5376 0.582708 68.2448 0.928544C68.9519 1.27438 69.4809 1.73465 69.832 2.30935C70.183 2.88404 70.3586 3.51214 70.3586 4.19364C70.3586 4.9972 70.1504 5.59987 69.7342 6.00165C69.318 6.40343 68.7839 6.60432 68.1319 6.60432C67.4098 6.60432 66.828 6.37037 66.3867 5.90248C65.9454 5.43458 65.7247 4.81411 65.7247 4.04107V2.68315C65.7247 2.32715 65.6545 2.06523 65.5141 1.89739C65.3737 1.72956 65.158 1.64565 64.8672 1.64565C64.4961 1.64565 64.2152 1.77279 64.0247 2.02708C63.8341 2.28137 63.7388 2.64755 63.7388 3.12562C63.7388 3.61386 63.8516 4.07158 64.0773 4.49879C64.303 4.926 64.5813 5.32524 64.9123 5.6965C65.2433 6.06777 65.5743 6.42378 65.9053 6.76453C66.2363 7.10528 66.5146 7.44094 66.7403 7.77152L66.8046 7.87062C66.9264 8.06866 67.0077 8.26579 67.0483 8.462L67.0621 8.54202H69.2904C69.5211 8.54202 69.6991 8.59034 69.8245 8.68697C69.9498 8.7836 70.0125 8.93363 70.0125 9.13706C70.0125 9.44221 69.8821 9.69142 69.6214 9.88468C69.3606 10.0779 68.9494 10.1746 68.3877 10.1746H67.3195V19.68C67.3195 19.9648 67.3621 20.1835 67.4474 20.336C67.5326 20.4886 67.6705 20.5802 67.8611 20.6107L69.155 20.809C69.3857 20.8395 69.5562 20.9133 69.6665 21.0303C69.7768 21.1472 69.832 21.3074 69.832 21.5109ZM40.2085 21.8618C39.3058 22.2992 38.2527 22.5179 37.0491 22.5179C35.7753 22.5179 34.6344 22.2483 33.6264 21.7092C32.6184 21.1701 31.8235 20.3894 31.2417 19.3672C30.66 18.3449 30.3691 17.1015 30.3691 15.6367C30.3691 14.2229 30.6725 12.9591 31.2794 11.8453C31.8862 10.7315 32.7312 9.85162 33.8144 9.20572C34.8977 8.55982 36.1614 8.23687 37.6058 8.23687C38.8394 8.23687 39.88 8.41996 40.7276 8.78614C41.5751 9.15232 42.222 9.64819 42.6684 10.2737C43.1147 10.8993 43.3379 11.5986 43.3379 12.3716C43.3379 13.1854 43.1047 13.8236 42.6383 14.2865C42.1719 14.7493 41.5375 14.9807 40.7351 14.9807C39.9126 14.9807 39.2883 14.7442 38.862 14.2712C38.4357 13.7982 38.2226 13.1498 38.2226 12.3259V11.3494C38.2226 10.851 38.1323 10.4746 37.9518 10.2203C37.7712 9.96605 37.5155 9.83891 37.1845 9.83891C36.8535 9.83891 36.5551 9.97368 36.2893 10.2432C36.0235 10.5128 35.8179 10.9171 35.6725 11.4562C35.527 11.9953 35.4543 12.6615 35.4543 13.4549C35.4543 14.5942 35.6223 15.5503 35.9583 16.3233C36.2943 17.0964 36.7532 17.6762 37.3349 18.0627C37.9167 18.4492 38.5787 18.6425 39.3209 18.6425C40.0631 18.6425 40.6849 18.5331 41.1864 18.3144C41.6879 18.0957 42.0741 17.727 42.3449 17.2083C42.4954 17.0659 42.6132 16.9743 42.6985 16.9336C42.7837 16.8929 42.8665 16.8726 42.9467 16.8726C43.047 16.8828 43.1297 16.9311 43.1949 17.0175C43.2601 17.104 43.2877 17.2388 43.2777 17.4219C43.1975 18.4187 42.8915 19.2985 42.36 20.0614C41.8284 20.8243 41.1112 21.4244 40.2085 21.8618ZM55.5017 21.5566C54.3733 22.1771 53.0619 22.4873 51.5674 22.4873C50.1131 22.4873 48.8368 22.1847 47.7385 21.5795C46.6402 20.9743 45.7852 20.1377 45.1734 19.0697C44.5615 18.0017 44.2556 16.7658 44.2556 15.3621C44.2556 14.0195 44.5766 12.8116 45.2185 11.7385C45.8604 10.6654 46.7481 9.81348 47.8814 9.18284C49.0148 8.55219 50.3187 8.23687 51.7931 8.23687C53.2575 8.23687 54.5363 8.54202 55.6296 9.15232C56.7228 9.76262 57.5754 10.6069 58.1872 11.6851C58.799 12.7633 59.105 14.0093 59.105 15.4231C59.105 16.7658 58.7865 17.9686 58.1496 19.0315C57.5127 20.0945 56.6301 20.9362 55.5017 21.5566ZM52.7109 20.9006C52.3999 20.9616 52.0965 20.8243 51.8006 20.4886C51.5048 20.153 51.2239 19.5884 50.9581 18.795C50.6923 18.0017 50.4391 16.9591 50.1984 15.6673C49.9677 14.3755 49.8373 13.3125 49.8072 12.4784C49.7771 11.6444 49.8373 11.0137 49.9877 10.5865C50.1382 10.1593 50.3689 9.91011 50.6798 9.83891C50.9907 9.77788 51.2941 9.91519 51.59 10.2509C51.8859 10.5865 52.1692 11.151 52.4401 11.9444C52.7109 12.7378 52.9666 13.7804 53.2073 15.0722C53.4481 16.364 53.581 17.4295 53.606 18.2687C53.6311 19.1078 53.5659 19.741 53.4105 20.1682C53.255 20.5954 53.0218 20.8395 52.7109 20.9006ZM79.6262 22.2127C80.0976 22.2127 80.3334 21.9788 80.3334 21.5109C80.3334 21.3074 80.2782 21.1472 80.1679 21.0303C80.0575 20.9133 79.887 20.8395 79.6563 20.809L78.3625 20.6107C78.1719 20.5802 78.034 20.4886 77.9487 20.336C77.8635 20.1835 77.8209 19.9648 77.8209 19.68V10.1746H78.889C79.4507 10.1746 79.8619 10.0779 80.1227 9.88468C80.3835 9.69142 80.5139 9.44221 80.5139 9.13706C80.5139 8.93363 80.4512 8.7836 80.3258 8.68697C80.2005 8.59034 80.0224 8.54202 79.7917 8.54202H77.5634L77.5497 8.462C77.509 8.26579 77.4278 8.06866 77.3059 7.87062L77.2416 7.77152C77.0159 7.44094 76.7376 7.10528 76.4066 6.76453C76.0756 6.42378 75.7447 6.06777 75.4137 5.6965C75.0827 5.32524 74.8043 4.926 74.5787 4.49879C74.353 4.07158 74.2402 3.61386 74.2402 3.12562C74.2402 2.64755 74.3354 2.28137 74.526 2.02708C74.7166 1.77279 74.9974 1.64565 75.3685 1.64565C75.6594 1.64565 75.875 1.72956 76.0155 1.89739C76.1559 2.06523 76.2261 2.32715 76.2261 2.68315V4.04107C76.2261 4.81411 76.4467 5.43458 76.8881 5.90248C77.3294 6.37037 77.9111 6.60432 78.6333 6.60432C79.2852 6.60432 79.8193 6.40343 80.2356 6.00165C80.6518 5.59987 80.8599 4.9972 80.8599 4.19364C80.8599 3.51214 80.6844 2.88404 80.3334 2.30935C79.9823 1.73465 79.4532 1.27438 78.7461 0.928544C78.039 0.582708 77.1488 0.40979 76.0756 0.40979C74.4107 0.40979 73.1268 0.809027 72.2241 1.6075C71.3214 2.40598 70.8701 3.47146 70.8701 4.80394C70.8701 5.36338 70.9453 5.83382 71.0958 6.21526C71.2462 6.59669 71.4167 6.92473 71.6073 7.19936C71.7979 7.474 71.9684 7.72066 72.1188 7.93935C72.2317 8.10337 72.3022 8.27454 72.3304 8.45286L72.3407 8.54202H71.0205C70.8275 8.54202 70.6709 8.5868 70.5507 8.67636L70.5015 8.71748C70.3761 8.83446 70.3134 8.98449 70.3134 9.16758C70.3134 9.35067 70.3636 9.50578 70.4639 9.63293C70.5642 9.76008 70.7297 9.87959 70.9604 9.99148L71.833 10.2814C72.0235 10.3627 72.1539 10.4517 72.2241 10.5484C72.2943 10.645 72.3295 10.7645 72.3295 10.9069V19.7257C72.3295 19.9902 72.2843 20.1936 72.194 20.336C72.1038 20.4784 71.9784 20.5751 71.8179 20.6259L71.171 20.8243C70.9905 20.8955 70.8576 20.987 70.7723 21.0989C70.687 21.2108 70.6444 21.3583 70.6444 21.5414C70.6444 21.755 70.7071 21.9203 70.8325 22.0373C70.9579 22.1542 71.1208 22.2127 71.3214 22.2127H79.6262ZM91.4064 21.7702C90.4335 22.2687 89.3102 22.5179 88.0364 22.5179C86.6322 22.5179 85.3985 22.2254 84.3353 21.6406C83.2721 21.0557 82.4422 20.2369 81.8454 19.1841C81.2486 18.1313 80.9502 16.9133 80.9502 15.5299C80.9502 14.0754 81.2386 12.8014 81.8153 11.7079C82.392 10.6145 83.227 9.76262 84.3203 9.15232C85.4135 8.54202 86.7275 8.23687 88.262 8.23687C89.5659 8.23687 90.6893 8.49371 91.6321 9.00737C92.5749 9.52104 93.2996 10.2178 93.8061 11.0976C94.3126 11.9775 94.5659 12.9565 94.5659 14.0347C94.5659 14.5026 94.4405 14.8713 94.1897 15.1409L94.1299 15.2007C93.8828 15.4304 93.5416 15.5452 93.1065 15.5452H86.2289L86.2436 15.6156C86.4261 16.4532 86.7378 17.124 87.1788 17.6278C87.931 18.4873 88.934 18.9171 90.1878 18.9171C90.9902 18.9171 91.6998 18.734 92.3166 18.3678C92.9335 18.0017 93.3472 17.4931 93.5578 16.8421C93.6782 16.7099 93.786 16.6209 93.8813 16.5751C93.9766 16.5293 94.0593 16.5064 94.1296 16.5064C94.2299 16.5064 94.3151 16.5471 94.3853 16.6285C94.4555 16.7099 94.4906 16.8472 94.4906 17.0404C94.4906 18.0373 94.2198 18.9502 93.6782 19.7791C93.1366 20.6081 92.3793 21.2718 91.4064 21.7702ZM86.0719 14.3221C86.0576 14.0881 86.0504 13.8448 86.0504 13.5922C86.0504 12.6361 86.1206 11.8834 86.2611 11.3341C86.4015 10.7849 86.582 10.3958 86.8027 10.1669C87.0233 9.93808 87.2691 9.82365 87.5399 9.82365C87.8909 9.82365 88.2194 10.1237 88.5253 10.7238C88.8312 11.324 88.9842 12.3208 88.9842 13.7143C88.9842 14.1415 88.7936 14.3551 88.4125 14.3551H86.0738L86.0719 14.3221ZM105.789 21.7702C104.816 22.2687 103.693 22.5179 102.419 22.5179C101.015 22.5179 99.7814 22.2254 98.7183 21.6406C97.6551 21.0557 96.8251 20.2369 96.2283 19.1841C95.6315 18.1313 95.3332 16.9133 95.3332 15.5299C95.3332 14.0754 95.6215 12.8014 96.1982 11.7079C96.775 10.6145 97.61 9.76262 98.7032 9.15232C99.7965 8.54202 101.11 8.23687 102.645 8.23687C103.949 8.23687 105.072 8.49371 106.015 9.00737C106.958 9.52104 107.683 10.2178 108.189 11.0976C108.696 11.9775 108.949 12.9565 108.949 14.0347C108.949 14.5026 108.823 14.8713 108.573 15.1409L108.513 15.2007C108.266 15.4304 107.925 15.5452 107.489 15.5452H100.612L100.627 15.6156C100.809 16.4532 101.121 17.124 101.562 17.6278C102.314 18.4873 103.317 18.9171 104.571 18.9171C105.373 18.9171 106.083 18.734 106.7 18.3678C107.316 18.0017 107.73 17.4931 107.941 16.8421C108.061 16.7099 108.169 16.6209 108.264 16.5751C108.36 16.5293 108.442 16.5064 108.513 16.5064C108.613 16.5064 108.698 16.5471 108.768 16.6285C108.838 16.7099 108.874 16.8472 108.874 17.0404C108.874 18.0373 108.603 18.9502 108.061 19.7791C107.52 20.6081 106.762 21.2718 105.789 21.7702ZM100.455 14.3221C100.441 14.0881 100.433 13.8448 100.433 13.5922C100.433 12.6361 100.504 11.8834 100.644 11.3341C100.784 10.7849 100.965 10.3958 101.186 10.1669C101.406 9.93808 101.652 9.82365 101.923 9.82365C102.274 9.82365 102.602 10.1237 102.908 10.7238C103.214 11.324 103.367 12.3208 103.367 13.7143C103.367 14.1415 103.177 14.3551 102.795 14.3551H100.457L100.455 14.3221ZM118.615 22.022C118.49 22.1491 118.307 22.2127 118.066 22.2127H110.544C110.323 22.2127 110.15 22.1517 110.025 22.0296C109.899 21.9076 109.836 21.7397 109.836 21.5261C109.836 21.3634 109.874 21.2286 109.949 21.1218C110.025 21.015 110.127 20.9158 110.258 20.8243L110.604 20.687C110.734 20.6259 110.824 20.5293 110.875 20.3971C110.925 20.2648 110.95 20.0462 110.95 19.741V11.9902C110.95 11.7461 110.922 11.5706 110.867 11.4638C110.812 11.357 110.719 11.2731 110.589 11.2121L110.198 11.1663C110.057 11.0849 109.954 10.9985 109.889 10.9069C109.824 10.8154 109.791 10.6984 109.791 10.556C109.791 10.3933 109.841 10.2483 109.942 10.1212C110.042 9.99402 110.213 9.88468 110.453 9.79313L114.726 8.55728C114.977 8.45556 115.187 8.38436 115.358 8.34367C115.528 8.30299 115.674 8.28264 115.794 8.28264C115.965 8.28264 116.093 8.34367 116.178 8.46573L116.205 8.51C116.276 8.63758 116.324 8.84152 116.351 9.12181L116.465 11.4926L116.492 11.4051C116.542 11.24 116.598 11.0815 116.659 10.9298C117.025 10.0195 117.509 9.34304 118.111 8.90057C118.713 8.45811 119.37 8.23687 120.082 8.23687C120.945 8.23687 121.607 8.52676 122.068 9.10655C122.529 9.68633 122.76 10.5662 122.76 11.7461C122.76 12.9158 122.519 13.7753 122.038 14.3246C121.556 14.8739 120.935 15.1485 120.172 15.1485C119.43 15.1485 118.881 14.9603 118.525 14.584C118.169 14.2076 117.981 13.6736 117.961 12.9819L117.946 12.3716C117.936 12.1377 117.891 11.9546 117.81 11.8224C117.73 11.6901 117.6 11.624 117.419 11.624C117.239 11.624 117.081 11.7181 116.945 11.9063C116.81 12.0945 116.707 12.3818 116.637 12.7683C116.567 13.1549 116.531 13.6482 116.531 14.2483V19.6189C116.531 19.9038 116.577 20.1301 116.667 20.2979C116.757 20.4657 116.898 20.57 117.088 20.6107L118.216 20.8395C118.427 20.8701 118.578 20.9489 118.668 21.076C118.758 21.2032 118.803 21.3532 118.803 21.5261C118.803 21.7296 118.741 21.8948 118.615 22.022ZM130.644 22.4873C132.138 22.4873 133.449 22.1771 134.578 21.5566C135.706 20.9362 136.589 20.0945 137.226 19.0315C137.863 17.9686 138.181 16.7658 138.181 15.4231C138.181 14.0093 137.875 12.7633 137.263 11.6851C136.652 10.6069 135.799 9.76262 134.706 9.15232C133.612 8.54202 132.334 8.23687 130.869 8.23687C129.395 8.23687 128.091 8.55219 126.958 9.18284C125.824 9.81348 124.937 10.6654 124.295 11.7385C123.653 12.8116 123.332 14.0195 123.332 15.3621C123.332 16.7658 123.638 18.0017 124.25 19.0697C124.861 20.1377 125.716 20.9743 126.815 21.5795C127.913 22.1847 129.189 22.4873 130.644 22.4873ZM130.877 20.4886C131.173 20.8243 131.476 20.9616 131.787 20.9006C132.098 20.8395 132.331 20.5954 132.487 20.1682C132.642 19.741 132.707 19.1078 132.682 18.2687C132.657 17.4295 132.524 16.364 132.284 15.0722C132.043 13.7804 131.787 12.7378 131.516 11.9444C131.245 11.151 130.962 10.5865 130.666 10.2509C130.37 9.91519 130.067 9.77788 129.756 9.83891C129.445 9.91011 129.214 10.1593 129.064 10.5865C128.913 11.0137 128.853 11.6444 128.883 12.4784C128.913 13.3125 129.044 14.3755 129.275 15.6673C129.515 16.9591 129.768 18.0017 130.034 18.795C130.3 19.5884 130.581 20.153 130.877 20.4886ZM150.112 22.5179C150.954 22.5179 151.646 22.3627 152.188 22.0525C152.73 21.7423 153.133 21.3736 153.399 20.9463C153.665 20.5191 153.798 20.1275 153.798 19.7715C153.798 19.6189 153.765 19.4918 153.7 19.3901C153.635 19.2884 153.547 19.2375 153.437 19.2375C153.387 19.2375 153.341 19.2477 153.301 19.268C153.261 19.2884 153.226 19.3189 153.196 19.3596C153.146 19.5427 153.068 19.6698 152.963 19.741C152.857 19.8122 152.745 19.8478 152.624 19.8478C152.454 19.8478 152.326 19.7893 152.241 19.6723C152.155 19.5554 152.113 19.4003 152.113 19.207V12.4632C152.113 11.1205 151.659 10.0805 150.751 9.34304C149.843 8.60559 148.422 8.23687 146.486 8.23687C144.981 8.23687 143.725 8.42505 142.717 8.8014C141.709 9.17775 140.952 9.65836 140.445 10.2432C139.939 10.8281 139.686 11.4257 139.686 12.036C139.686 12.687 139.874 13.1828 140.25 13.5236C140.626 13.8643 141.17 14.0347 141.882 14.0347C142.755 14.0347 143.442 13.7982 143.943 13.3252C144.445 12.8523 144.696 12.2394 144.696 11.4867V10.3271C144.696 10.0423 144.783 9.82111 144.959 9.66345C145.134 9.50578 145.353 9.42696 145.613 9.42696C145.894 9.42696 146.117 9.53121 146.283 9.73973C146.448 9.94825 146.531 10.2305 146.531 10.5865L146.531 15.0341L146.451 15.0167C146.209 14.9699 145.928 14.9432 145.61 14.9366L145.448 14.9349C143.291 14.9349 141.684 15.3011 140.626 16.0334C139.568 16.7658 139.039 17.788 139.039 19.1002C139.039 20.097 139.402 20.9158 140.129 21.5566C140.857 22.1975 141.822 22.5179 143.026 22.5179C143.928 22.5179 144.771 22.3322 145.553 21.961C146.14 21.6825 146.617 21.3168 146.983 20.8639L147.004 20.8374L147.026 20.9057C147.142 21.2355 147.354 21.531 147.662 21.7921L147.757 21.8694C148.314 22.3017 149.099 22.5179 150.112 22.5179ZM144.929 19.6418C145.174 19.9724 145.498 20.1377 145.899 20.1377L145.985 20.1347C146.156 20.1228 146.322 20.0751 146.482 19.9917L146.531 19.9639V16.0487L146.456 16.0258C146.285 15.98 146.085 15.9572 145.854 15.9572C145.463 15.9572 145.149 16.1402 144.914 16.5064C144.678 16.8726 144.56 17.4117 144.56 18.1237C144.56 18.8052 144.683 19.3113 144.929 19.6418ZM160.718 22.5636C162.504 22.5636 163.873 22.1517 164.826 21.3278C165.779 20.5039 166.255 19.3799 166.255 17.9559C166.255 17.0913 166.094 16.3335 165.774 15.6825C165.453 15.0315 164.891 14.4543 164.088 13.9508C163.286 13.4473 162.158 12.9718 160.703 12.5242C160.162 12.3513 159.743 12.1758 159.447 11.9978C159.151 11.8198 158.948 11.6291 158.838 11.4257C158.727 11.2223 158.672 11.0036 158.672 10.7696C158.672 10.4238 158.798 10.1441 159.048 9.93045C159.299 9.71685 159.67 9.61004 160.162 9.61004C160.844 9.61004 161.488 9.83891 162.095 10.2966C162.702 10.7544 163.371 11.5376 164.104 12.6463C164.294 12.8802 164.485 13.0506 164.675 13.1574C164.866 13.2642 165.046 13.2973 165.217 13.2566C165.427 13.1955 165.558 13.0557 165.608 12.837C165.658 12.6183 165.648 12.3055 165.578 11.8987L165.187 9.09129C165.147 8.79631 165.071 8.58779 164.961 8.46573C164.851 8.34367 164.705 8.28264 164.525 8.28264C164.364 8.28264 164.164 8.33859 163.923 8.45048C163.682 8.56236 163.444 8.6768 163.208 8.79377C162.973 8.91074 162.795 8.96923 162.674 8.96923C162.564 8.96923 162.401 8.9082 162.185 8.78614C161.97 8.66408 161.666 8.54202 161.275 8.41996C160.884 8.2979 160.377 8.23687 159.756 8.23687C158.722 8.23687 157.792 8.42505 156.965 8.8014C156.137 9.17775 155.485 9.7143 155.009 10.4111C154.532 11.1078 154.294 11.9394 154.294 12.9057C154.294 13.7601 154.472 14.5077 154.828 15.1485C155.184 15.7893 155.729 16.3386 156.461 16.7963C157.193 17.254 158.116 17.6253 159.229 17.9101C159.951 18.1034 160.505 18.2992 160.891 18.4975C161.278 18.6959 161.543 18.912 161.689 19.146C161.834 19.3799 161.907 19.6393 161.907 19.9241C161.907 20.3004 161.782 20.6107 161.531 20.8548C161.28 21.0989 160.899 21.221 160.387 21.221C159.906 21.221 159.447 21.1167 159.011 20.9082C158.575 20.6997 158.126 20.3411 157.664 19.8326C157.203 19.324 156.686 18.6272 156.115 17.7423C155.944 17.5083 155.751 17.3456 155.535 17.254C155.32 17.1625 155.102 17.1676 154.881 17.2693C154.67 17.3507 154.535 17.5236 154.475 17.788C154.415 18.0525 154.43 18.378 154.52 18.7645L154.986 21.8008C155.057 22.1059 155.157 22.3093 155.287 22.4111C155.418 22.5128 155.558 22.5636 155.708 22.5636C155.879 22.5636 156.087 22.5077 156.333 22.3958L157.07 22.0601C157.316 21.9483 157.514 21.8923 157.664 21.8923C157.815 21.8923 158.013 21.9483 158.259 22.0601C158.504 22.172 158.825 22.2839 159.221 22.3958C159.618 22.5077 160.117 22.5636 160.718 22.5636ZM174.981 21.9915C174.319 22.3424 173.537 22.5179 172.634 22.5179C171.109 22.5179 169.964 22.1466 169.196 21.4041C168.429 20.6615 168.045 19.4918 168.045 17.8948V10.9985C168.045 10.7849 168.025 10.6221 167.985 10.5102C167.945 10.3983 167.845 10.3068 167.684 10.2356L166.977 10.0067C166.807 9.92537 166.696 9.82619 166.646 9.70922C166.596 9.59224 166.571 9.4473 166.571 9.27438C166.571 9.06077 166.646 8.88531 166.797 8.748C166.947 8.61068 167.133 8.54202 167.353 8.54202H168.09C168.181 8.54202 168.276 8.50642 168.376 8.43522C168.477 8.36402 168.612 8.22161 168.783 8.00801L171.566 5.67362C171.766 5.4295 171.967 5.24387 172.168 5.11672C172.368 4.98957 172.569 4.926 172.769 4.926C173 4.926 173.181 4.9972 173.311 5.13961L173.352 5.19009C173.455 5.33274 173.507 5.53969 173.507 5.81093L173.506 8.54202H176.651C176.872 8.54202 177.042 8.59034 177.163 8.68697C177.283 8.7836 177.343 8.93363 177.343 9.13706C177.343 9.42187 177.218 9.66599 176.967 9.86942L176.911 9.91146C176.658 10.0869 176.276 10.1746 175.763 10.1746H173.506L173.507 17.132C173.507 17.8948 173.635 18.4594 173.89 18.8256C174.146 19.1917 174.52 19.3748 175.011 19.3748C175.222 19.3748 175.417 19.3291 175.598 19.2375C175.778 19.146 175.941 19.0264 176.087 18.879C176.232 18.7315 176.37 18.5662 176.501 18.3831C176.631 18.2 176.756 18.0169 176.877 17.8338C176.977 17.7931 177.065 17.8109 177.14 17.8872C177.215 17.9635 177.248 18.1186 177.238 18.3526C177.168 19.1765 176.939 19.9012 176.553 20.5268C176.167 21.1523 175.643 21.6406 174.981 21.9915ZM184.835 22.5179C186.109 22.5179 187.233 22.2687 188.206 21.7702C189.178 21.2718 189.936 20.6081 190.477 19.7791C191.019 18.9502 191.29 18.0373 191.29 17.0404C191.29 16.8472 191.255 16.7099 191.184 16.6285C191.114 16.5471 191.029 16.5064 190.929 16.5064C190.858 16.5064 190.776 16.5293 190.68 16.5751C190.585 16.6209 190.477 16.7099 190.357 16.8421C190.146 17.4931 189.733 18.0017 189.116 18.3678C188.499 18.734 187.789 18.9171 186.987 18.9171C185.733 18.9171 184.73 18.4873 183.978 17.6278C183.537 17.124 183.225 16.4532 183.043 15.6156L183.028 15.5452H189.906C190.341 15.5452 190.682 15.4304 190.929 15.2007L190.989 15.1409C191.24 14.8713 191.365 14.5026 191.365 14.0347C191.365 12.9565 191.112 11.9775 190.605 11.0976C190.099 10.2178 189.374 9.52104 188.431 9.00737C187.488 8.49371 186.365 8.23687 185.061 8.23687C183.527 8.23687 182.213 8.54202 181.119 9.15232C180.026 9.76262 179.191 10.6145 178.614 11.7079C178.038 12.8014 177.749 14.0754 177.749 15.5299C177.749 16.9133 178.048 18.1313 178.644 19.1841C179.241 20.2369 180.071 21.0557 181.134 21.6406C182.198 22.2254 183.431 22.5179 184.835 22.5179ZM182.85 13.5922C182.85 13.8448 182.857 14.0881 182.871 14.3221L182.873 14.3551H185.212C185.593 14.3551 185.783 14.1415 185.783 13.7143C185.783 12.3208 185.63 11.324 185.324 10.7238C185.018 10.1237 184.69 9.82365 184.339 9.82365C184.068 9.82365 183.822 9.93808 183.602 10.1669C183.381 10.3958 183.201 10.7849 183.06 11.3341C182.92 11.8834 182.85 12.6361 182.85 13.5922ZM200.482 22.2127C200.723 22.2127 200.906 22.1491 201.031 22.022C201.157 21.8948 201.219 21.7296 201.219 21.5261C201.219 21.3532 201.174 21.2032 201.084 21.076C200.994 20.9489 200.843 20.8701 200.633 20.8395L199.504 20.6107C199.314 20.57 199.173 20.4657 199.083 20.2979C198.993 20.1301 198.948 19.9038 198.948 19.6189V14.2483C198.948 13.6482 198.983 13.1549 199.053 12.7683C199.123 12.3818 199.226 12.0945 199.361 11.9063C199.497 11.7181 199.655 11.624 199.835 11.624C200.016 11.624 200.146 11.6901 200.226 11.8224C200.307 11.9546 200.352 12.1377 200.362 12.3716L200.377 12.9819C200.397 13.6736 200.585 14.2076 200.941 14.584C201.297 14.9603 201.846 15.1485 202.588 15.1485C203.351 15.1485 203.973 14.8739 204.454 14.3246C204.935 13.7753 205.176 12.9158 205.176 11.7461C205.176 10.5662 204.945 9.68633 204.484 9.10655C204.023 8.52676 203.361 8.23687 202.498 8.23687C201.786 8.23687 201.129 8.45811 200.527 8.90057C199.926 9.34304 199.442 10.0195 199.075 10.9298C199.014 11.0815 198.959 11.24 198.908 11.4051L198.882 11.4931L198.767 9.12181C198.74 8.84152 198.692 8.63758 198.621 8.51L198.594 8.46573C198.509 8.34367 198.381 8.28264 198.21 8.28264C198.09 8.28264 197.945 8.30299 197.774 8.34367C197.604 8.38436 197.393 8.45556 197.142 8.55728L192.869 9.79313C192.629 9.88468 192.458 9.99402 192.358 10.1212C192.258 10.2483 192.207 10.3933 192.207 10.556C192.207 10.6984 192.24 10.8154 192.305 10.9069C192.37 10.9985 192.473 11.0849 192.614 11.1663L193.005 11.2121C193.135 11.2731 193.228 11.357 193.283 11.4638C193.338 11.5706 193.366 11.7461 193.366 11.9902V19.741C193.366 20.0462 193.341 20.2648 193.291 20.3971C193.241 20.5293 193.15 20.6259 193.02 20.687L192.674 20.8243C192.543 20.9158 192.441 21.015 192.365 21.1218C192.29 21.2286 192.253 21.3634 192.253 21.5261C192.253 21.7397 192.315 21.9076 192.441 22.0296C192.566 22.1517 192.739 22.2127 192.96 22.2127H200.482ZM216.324 21.3278C215.372 22.1517 214.003 22.5636 212.217 22.5636C211.615 22.5636 211.116 22.5077 210.72 22.3958C210.324 22.2839 210.003 22.172 209.757 22.0601C209.512 21.9483 209.314 21.8923 209.163 21.8923C209.013 21.8923 208.815 21.9483 208.569 22.0601L207.832 22.3958C207.586 22.5077 207.378 22.5636 207.207 22.5636C207.057 22.5636 206.916 22.5128 206.786 22.4111C206.656 22.3093 206.555 22.1059 206.485 21.8008L206.019 18.7645C205.928 18.378 205.913 18.0525 205.974 17.788C206.034 17.5236 206.169 17.3507 206.38 17.2693C206.6 17.1676 206.819 17.1625 207.034 17.254C207.25 17.3456 207.443 17.5083 207.613 17.7423C208.185 18.6272 208.702 19.324 209.163 19.8326C209.624 20.3411 210.073 20.6997 210.51 20.9082C210.946 21.1167 211.405 21.221 211.886 21.221C212.398 21.221 212.779 21.0989 213.03 20.8548C213.28 20.6107 213.406 20.3004 213.406 19.9241C213.406 19.6393 213.333 19.3799 213.188 19.146C213.042 18.912 212.776 18.6959 212.39 18.4975C212.004 18.2992 211.45 18.1034 210.728 17.9101C209.614 17.6253 208.692 17.254 207.96 16.7963C207.227 16.3386 206.683 15.7893 206.327 15.1485C205.971 14.5077 205.793 13.7601 205.793 12.9057C205.793 11.9394 206.031 11.1078 206.508 10.4111C206.984 9.7143 207.636 9.17775 208.464 8.8014C209.291 8.42505 210.221 8.23687 211.254 8.23687C211.876 8.23687 212.383 8.2979 212.774 8.41996C213.165 8.54202 213.468 8.66408 213.684 8.78614C213.9 8.9082 214.063 8.96923 214.173 8.96923C214.293 8.96923 214.471 8.91074 214.707 8.79377C214.943 8.6768 215.181 8.56236 215.422 8.45048C215.663 8.33859 215.863 8.28264 216.024 8.28264C216.204 8.28264 216.35 8.34367 216.46 8.46573C216.57 8.58779 216.645 8.79631 216.686 9.09129L217.077 11.8987C217.147 12.3055 217.157 12.6183 217.107 12.837C217.057 13.0557 216.926 13.1955 216.716 13.2566C216.545 13.2973 216.365 13.2642 216.174 13.1574C215.983 13.0506 215.793 12.8802 215.602 12.6463C214.87 11.5376 214.201 10.7544 213.594 10.2966C212.987 9.83891 212.343 9.61004 211.661 9.61004C211.169 9.61004 210.798 9.71685 210.547 9.93045C210.296 10.1441 210.171 10.4238 210.171 10.7696C210.171 11.0036 210.226 11.2223 210.337 11.4257C210.447 11.6291 210.65 11.8198 210.946 11.9978C211.242 12.1758 211.661 12.3513 212.202 12.5242C213.657 12.9718 214.785 13.4473 215.587 13.9508C216.39 14.4543 216.951 15.0315 217.272 15.6825C217.593 16.3335 217.754 17.0913 217.754 17.9559C217.754 19.3799 217.277 20.5039 216.324 21.3278Z" fill="white"/>
<path fill-rule="evenodd" clip-rule="evenodd" d="M13.2823 4.10459C10.0382 0.863156 5.22953 0.396534 2.56282 3.06611C-0.105272 5.73431 0.361332 10.5431 3.59988 13.786C4.46386 14.65 5.45937 15.3105 6.51027 15.784C6.85503 13.7804 7.84363 11.8544 9.34452 10.2731C8.84745 10.0959 8.33792 9.94637 7.80624 9.80098C4.6577 8.93697 3.09312 6.31032 2.72759 3.23088C3.02991 3.59444 3.30517 3.97578 3.57962 4.35599C4.11211 5.09369 4.64154 5.82715 5.35968 6.41832C6.47683 7.3382 7.70308 7.6933 9.04462 8.08178C9.09641 8.09678 9.14838 8.11183 9.20052 8.12696C9.83604 8.31112 10.3885 8.58389 10.8953 8.90236C12.2272 7.92896 13.7295 7.28095 15.2802 7.01371C14.8081 5.96277 14.1463 4.9686 13.2823 4.10459ZM7.79655 16.5539C8.00285 14.5475 8.97483 12.5855 10.5325 11.0278C13.7766 7.78634 18.5852 7.31833 21.2519 9.9893C23.92 12.6575 23.4548 17.4663 20.2121 20.7092C18.6545 22.2669 16.6925 23.2389 14.6862 23.4466C14.419 23.4729 14.1546 23.4867 13.8956 23.4867C12.1705 23.4867 10.6294 22.8816 9.49405 21.7462C8.187 20.4405 7.58332 18.5962 7.79655 16.5539ZM12.5415 18.2002C13.6049 17.3888 14.7555 17.0676 16.0071 16.7256C19.1557 15.8615 20.7189 13.2349 21.0858 10.1555C20.786 10.517 20.5128 10.8957 20.2403 11.2733L20.2403 11.2734C19.7062 12.0137 19.1753 12.7496 18.4537 13.3429C17.3331 14.2643 16.104 14.62 14.7565 15.0099L14.6129 15.0515C11.5322 15.946 10.0091 18.5505 9.65743 21.5815C9.96091 21.2168 10.2389 20.8383 10.5155 20.4618L10.5155 20.4618C11.1158 19.6443 11.7092 18.8363 12.5415 18.2002Z" fill="#0E8784"/>
</svg>
